# xmcd
#
# Track frame offsets:
#	150
#	17252
#	33047
#	47985
#	65927
#	80512
#	90177
#	104130
#	116875
#	131445
#
# Disc length: 1942 seconds
#
# Revision: 0
# Processed by: cddbd v1.5.2PL0 Copyright (c) Steve Scherf et al.
# Submitted via: audiograbber 1.83.01
#
DISCID=7f07940a
DTITLE=Linda Ronstadt - Heart Like A Wheel
DYEAR=1974
DGENRE=Country
TTITLE0=You,re No Good
TTITLE1=It Doesn't Matter Anymore
TTITLE2=Faithless Love
TTITLE3=Dark End Of The Street
TTITLE4=Heart Like A Wheel
TTITLE5=When Will I Be Loved
TTITLE6=Willing
TTITLE7=I Can,t Help It If I,m Still In Love With You
TTITLE8=Keep Me From Blowing Away
TTITLE9=You Can Close Your Eyes
EXTD=
EXTT0=
EXTT1=
EXTT2=
EXTT3=
EXTT4=
EXTT5=
EXTT6=
EXTT7=
EXTT8=
EXTT9=
PLAYORDER=
